<svg width="25" height="26" viewBox="0 0 25 26" fill="none" xmlns="http://www.w3.org/2000/svg">
<path d="M1.5625 5.1875C1.5625 4.32324 2.26074 3.625 3.125 3.625H21.875C22.7393 3.625 23.4375 4.32324 23.4375 5.1875C23.4375 6.05176 22.7393 6.75 21.875 6.75H3.125C2.26074 6.75 1.5625 6.05176 1.5625 5.1875ZM8.56934 13C8.56934 12.1357 9.26758 11.4375 10.1318 11.4375H21.875C22.7393 11.4375 23.4375 12.1357 23.4375 13C23.4375 13.8643 22.7393 14.5625 21.875 14.5625H10.1318C9.26758 14.5625 8.56934 13.8643 8.56934 13ZM23.4375 20.8125C23.4375 21.6768 22.7393 22.375 21.875 22.375H7.00684C6.14258 22.375 5.44434 21.6768 5.44434 20.8125C5.44434 19.9482 6.14258 19.25 7.00684 19.25H21.875C22.7393 19.25 23.4375 19.9482 23.4375 20.8125Z" fill="white"/>
</svg>
